<svg width="28" height="28" viewBox="0 0 28 28" fill="none" xmlns="http://www.w3.org/2000/svg">
<path fill-rule="evenodd" clip-rule="evenodd" d="M22.9276 6.69565C22.9276 8.46057 21.4969 9.8913 19.732 9.8913C18.9139 9.8913 18.1676 9.5839 17.6023 9.07829L10.9498 13.1721C11.0204 13.4362 11.0581 13.7137 11.0581 14C11.0581 14.2863 11.0204 14.5638 10.9498 14.8279L17.6023 18.9217C18.1676 18.4161 18.9139 18.1087 19.732 18.1087C21.4969 18.1087 22.9276 19.5394 22.9276 21.3043C22.9276 23.0693 21.4969 24.5 19.732 24.5C17.9671 24.5 16.5363 23.0693 16.5363 21.3043C16.5363 21.018 16.574 20.7405 16.6446 20.4765L9.99208 16.3827C9.4268 16.8883 8.6805 17.1957 7.8624 17.1957C6.09749 17.1957 4.66675 15.765 4.66675 14C4.66675 12.2351 6.09749 10.8044 7.8624 10.8044C8.68048 10.8044 9.42677 11.1118 9.99204 11.6174L16.6446 7.52352C16.574 7.25948 16.5363 6.98196 16.5363 6.69565C16.5363 4.93074 17.9671 3.5 19.732 3.5C21.4969 3.5 22.9276 4.93074 22.9276 6.69565Z" fill="white"/>
</svg>
