<svg width="24" height="24" viewBox="0 0 24 24" fill="none" xmlns="http://www.w3.org/2000/svg">
<path fill-rule="evenodd" clip-rule="evenodd" d="M7.94523 5.00538C6.87489 4.95241 5.80447 5.29947 5.08688 5.93383C4.14881 6.76306 3.60718 8.05628 3.60718 9.44462C3.60718 12.3513 5.64678 15.3114 11.9934 19.4981C11.9974 19.5007 12.0025 19.5007 12.0065 19.4981C18.3532 15.3114 20.3928 12.3513 20.3928 9.44462C20.3928 8.05629 19.8511 6.76307 18.9131 5.93384C18.1983 5.302 17.1336 4.9551 16.0677 5.00462L15.8666 5.01836C14.7667 5.11636 13.9053 5.5886 13.1157 6.46738L12 7.70902L10.8843 6.46743C10.0543 5.54381 9.14157 5.06457 7.94523 5.00538ZM15.7498 3.52285L15.9806 3.50708C17.3891 3.43738 18.8582 3.88323 19.9065 4.80999C21.2078 5.96031 21.8928 7.68452 21.8928 9.44462C21.8928 13.1969 19.1985 16.5507 12.8325 20.7502C12.3275 21.0834 11.6725 21.0834 11.1674 20.7502C4.80143 16.5507 2.10718 13.1969 2.10718 9.44462C2.10718 7.68452 2.79211 5.96031 4.0934 4.80999C5.14177 3.88323 6.6108 3.43751 8.01937 3.50721C9.1343 3.56238 10.0786 3.89897 10.9023 4.47848C11.2936 4.7538 11.6577 5.08396 12 5.46482C12.3418 5.08441 12.7058 4.75417 13.0974 4.47859C13.8604 3.94172 14.7357 3.61167 15.7498 3.52285Z" fill="white"/>
</svg>
