<svg width="24" height="24" viewBox="0 0 24 24" fill="none" xmlns="http://www.w3.org/2000/svg">
<path fill-rule="evenodd" clip-rule="evenodd" d="M4.0934 4.80999C5.14177 3.88323 6.6108 3.43751 8.01937 3.50721C9.66401 3.58858 10.9373 4.28233 12 5.46482C13.0077 4.34332 14.208 3.65789 15.7426 3.52348L15.9806 3.50708C17.3891 3.43738 18.8582 3.88323 19.9065 4.80999C21.2078 5.96031 21.8928 7.68452 21.8928 9.44462C21.8928 13.1969 19.1985 16.5507 12.8325 20.7502C12.3275 21.0834 11.6725 21.0834 11.1674 20.7502C4.80143 16.5507 2.10718 13.1969 2.10718 9.44462C2.10718 7.68452 2.79211 5.96031 4.0934 4.80999Z" fill="white"/>
</svg>
