<svg width="16" height="16" viewBox="0 0 16 16" fill="none" xmlns="http://www.w3.org/2000/svg">
<g id="thumb-down">
<path id="icon" fill-rule="evenodd" clip-rule="evenodd" d="M6.45475 14.1127C6.55582 14.442 6.85991 14.6667 7.20433 14.6667C8.41283 14.6667 9.42472 13.751 9.54497 12.5485L9.73314 10.6667H9.9846C11.7304 10.6667 12.6033 10.6667 13.2189 10.3143C13.7837 9.99099 14.2108 9.47222 14.4197 8.85578C14.6473 8.18399 14.4796 7.32734 14.1443 5.61403C13.8493 4.10678 13.7018 3.35316 13.3148 2.78659C12.958 2.26425 12.4599 1.85423 11.8788 1.6044C11.2484 1.33341 10.4805 1.33341 8.94467 1.33341H5.2665C3.76661 1.33341 3.01666 1.33341 2.49093 1.71538C2.32114 1.83874 2.17183 1.98805 2.04847 2.15784C1.6665 2.68357 1.6665 3.43352 1.6665 4.93341V5.73341C1.6665 7.23331 1.6665 7.98325 2.04847 8.50899C2.17183 8.67877 2.32114 8.82809 2.49093 8.95145C2.98302 9.30897 3.67154 9.33185 4.98762 9.33331L6.45475 14.1127ZM3.6665 8.00008H4.99984V2.66675H3.6665C3.29831 2.66675 2.99984 2.96523 2.99984 3.33341V7.33341C2.99984 7.7016 3.29831 8.00008 3.6665 8.00008Z" fill="white"/>
</g>
</svg>
