<svg width="25" height="26" viewBox="0 0 25 26" fill="none" xmlns="http://www.w3.org/2000/svg">
<path d="M11.5657 3.42441C11.9478 2.6502 13.0518 2.6502 13.4339 3.42441L15.7883 8.19487C15.94 8.50231 16.2333 8.71541 16.5726 8.76471L21.8371 9.52969C22.6915 9.65384 23.0327 10.7038 22.4144 11.3064L18.605 15.0197C18.3595 15.259 18.2475 15.6038 18.3054 15.9417L19.2047 21.185C19.3506 22.0359 18.4575 22.6849 17.6933 22.2831L12.9846 19.8076C12.6811 19.648 12.3186 19.648 12.0151 19.8076L7.30638 22.2831C6.54218 22.6849 5.64903 22.0359 5.79497 21.185L6.69426 15.9417C6.75222 15.6038 6.64019 15.259 6.39468 15.0197L2.58524 11.3064C1.96699 10.7038 2.30815 9.65384 3.16255 9.52969L8.42706 8.76471C8.76634 8.71541 9.05964 8.50231 9.21137 8.19487L11.5657 3.42441Z" fill="#DAB600"/>
</svg>
