<svg width="16" height="16" viewBox="0 0 16 16" fill="none" xmlns="http://www.w3.org/2000/svg">
<g id="thumb-up">
<path id="icon" fill-rule="evenodd" clip-rule="evenodd" d="M6.45475 1.88726C6.55582 1.558 6.85991 1.33325 7.20433 1.33325C8.41283 1.33325 9.42472 2.24899 9.54497 3.4515L9.73314 5.33325H9.9846C11.7304 5.33325 12.6033 5.33325 13.2189 5.68565C13.7837 6.00901 14.2108 6.52778 14.4197 7.14422C14.6473 7.81601 14.4796 8.67266 14.1443 10.386C13.8493 11.8932 13.7018 12.6468 13.3148 13.2134C12.958 13.7357 12.4599 14.1458 11.8788 14.3956C11.2484 14.6666 10.4805 14.6666 8.94467 14.6666H5.2665C3.76661 14.6666 3.01666 14.6666 2.49093 14.2846C2.32114 14.1613 2.17183 14.0119 2.04847 13.8422C1.6665 13.3164 1.6665 12.5665 1.6665 11.0666V10.2666C1.6665 8.76669 1.6665 8.01675 2.04847 7.49101C2.17183 7.32123 2.32114 7.17191 2.49093 7.04855C2.98302 6.69103 3.67154 6.66815 4.98762 6.66669L6.45475 1.88726ZM3.6665 7.99992H4.99984V13.3333H3.6665C3.29831 13.3333 2.99984 13.0348 2.99984 12.6666V8.66659C2.99984 8.2984 3.29831 7.99992 3.6665 7.99992Z" fill="white"/>
</g>
</svg>
