<svg xmlns="http://www.w3.org/2000/svg" xmlns:xlink="http://www.w3.org/1999/xlink" viewBox="0,0,256,256" width="24px" height="24px" fill-rule="nonzero"><g fill="#ffffff" fill-rule="nonzero" stroke="none" stroke-width="1" stroke-linecap="butt" stroke-linejoin="miter" stroke-miterlimit="10" stroke-dasharray="" stroke-dashoffset="0" font-family="none" font-weight="none" font-size="none" text-anchor="none" style="mix-blend-mode: normal"><g transform="scale(10.66667,10.66667)"><path d="M12,2c-5.523,0 -10,4.477 -10,10c0,5.523 4.477,10 10,10c5.523,0 10,-4.477 10,-10c0,-5.523 -4.477,-10 -10,-10zM13,17c0,0.552 -0.448,1 -1,1c-0.552,0 -1,-0.448 -1,-1v-6c0,-0.552 0.448,-1 1,-1c0.552,0 1,0.448 1,1zM12,8c-0.552,0 -1,-0.448 -1,-1c0,-0.552 0.448,-1 1,-1c0.552,0 1,0.448 1,1c0,0.552 -0.448,1 -1,1zM20,12c0,4.418 -3.582,8 -8,8c-4.418,0 -8,-3.582 -8,-8c0,-4.418 3.582,-8 8,-8c4.418,0 8,3.582 8,8z"></path></g></g></svg>